<svg version="1.1" id="Layer_1" xmlns="http://www.w3.org/2000/svg" xmlns:xlink="http://www.w3.org/1999/xlink" x="0px" y="0px"
	 width="100%" viewBox="0 0 460 460" enable-background="new 0 0 460 460" xml:space="preserve">
<path fill="#000000" opacity="1.000000" stroke="none" 
	d="
M214.000000,461.000000 
	C142.685913,461.000000 71.871819,461.000000 1.028866,461.000000 
	C1.028866,307.727570 1.028866,154.455139 1.028866,1.091352 
	C154.230728,1.091352 307.461517,1.091352 460.846161,1.091352 
	C460.846161,154.333221 460.846161,307.666595 460.846161,461.000000 
	C378.788513,461.000000 296.644257,461.000000 214.000000,461.000000 
M187.068939,258.559723 
	C195.937012,249.582733 204.755630,240.556198 213.684494,231.640091 
	C227.786285,217.558441 241.980240,203.569138 256.100983,189.506409 
	C268.222778,177.434433 280.288452,165.306168 292.394226,153.218094 
	C302.855804,142.771835 313.408722,132.415833 323.779572,121.880486 
	C328.174927,117.415436 328.137238,110.534248 324.101532,106.612396 
	C319.585846,102.224106 313.254547,102.121513 308.915924,106.441505 
	C292.080109,123.205070 275.224579,139.949188 258.451324,156.775223 
	C235.573608,179.724884 212.802383,202.780701 189.912994,225.718674 
	C173.600250,242.066010 157.139023,258.265076 140.799469,274.585785 
	C129.863297,285.509338 119.108376,296.615387 108.107262,307.472473 
	C102.370407,313.134216 101.629623,318.724762 106.486153,323.947083 
	C110.667702,328.443604 117.739113,327.984711 122.833984,322.888824 
	C144.092682,301.625885 165.352051,280.363617 187.068939,258.559723 
M267.394806,316.886444 
	C271.021606,313.259308 274.670746,309.654175 278.271027,306.000946 
	C289.191803,294.919586 300.039062,283.765137 311.018250,272.742065 
	C322.029205,261.687103 333.216644,250.807907 344.221832,239.747269 
	C349.256226,234.687485 349.471222,227.640900 345.025208,223.339737 
	C340.893951,219.343079 333.668488,220.008392 328.885986,224.826675 
	C325.976013,227.758408 323.065613,230.689697 320.157990,233.623779 
	C302.603638,251.337921 285.109497,269.112213 267.477356,286.748596 
	C253.390762,300.838562 239.142975,314.767456 224.953110,328.754028 
	C220.085663,333.551727 219.310379,340.619202 223.234940,344.888275 
	C227.408569,349.428284 234.591751,349.280548 239.636520,344.349884 
	C248.774994,335.418152 257.812714,326.383301 267.394806,316.886444 
z"/>
<path fill="#FDFDFD" opacity="1.000000" stroke="none" 
	d="
M186.840057,258.830414 
	C165.352051,280.363617 144.092682,301.625885 122.833984,322.888824 
	C117.739113,327.984711 110.667702,328.443604 106.486153,323.947083 
	C101.629623,318.724762 102.370407,313.134216 108.107262,307.472473 
	C119.108376,296.615387 129.863297,285.509338 140.799469,274.585785 
	C157.139023,258.265076 173.600250,242.066010 189.912994,225.718674 
	C212.802383,202.780701 235.573608,179.724884 258.451324,156.775223 
	C275.224579,139.949188 292.080109,123.205070 308.915924,106.441505 
	C313.254547,102.121513 319.585846,102.224106 324.101532,106.612396 
	C328.137238,110.534248 328.174927,117.415436 323.779572,121.880486 
	C313.408722,132.415833 302.855804,142.771835 292.394226,153.218094 
	C280.288452,165.306168 268.222778,177.434433 256.100983,189.506409 
	C241.980240,203.569138 227.786285,217.558441 213.684494,231.640091 
	C204.755630,240.556198 195.937012,249.582733 186.840057,258.830414 
z"/>
<path fill="#FCFCFC" opacity="1.000000" stroke="none" 
	d="
M267.143646,317.138977 
	C257.812714,326.383301 248.774994,335.418152 239.636520,344.349884 
	C234.591751,349.280548 227.408569,349.428284 223.234940,344.888275 
	C219.310379,340.619202 220.085663,333.551727 224.953110,328.754028 
	C239.142975,314.767456 253.390762,300.838562 267.477356,286.748596 
	C285.109497,269.112213 302.603638,251.337921 320.157990,233.623779 
	C323.065613,230.689697 325.976013,227.758408 328.885986,224.826675 
	C333.668488,220.008392 340.893951,219.343079 345.025208,223.339737 
	C349.471222,227.640900 349.256226,234.687485 344.221832,239.747269 
	C333.216644,250.807907 322.029205,261.687103 311.018250,272.742065 
	C300.039062,283.765137 289.191803,294.919586 278.271027,306.000946 
	C274.670746,309.654175 271.021606,313.259308 267.143646,317.138977 
z"/>
</svg>