<svg version="1.1" id="Layer_1" xmlns="http://www.w3.org/2000/svg" xmlns:xlink="http://www.w3.org/1999/xlink" x="0px" y="0px"
	 width="100%" viewBox="0 0 740 646" enable-background="new 0 0 740 646" xml:space="preserve">
<path fill="#181825" opacity="1.000000" stroke="none" 
	d="
M516.000000,647.000000 
	C344.000000,647.000000 172.500000,647.000000 1.000000,647.000000 
	C1.000000,431.666656 1.000000,216.333328 1.000000,1.000000 
	C247.666672,1.000000 494.333344,1.000000 741.000000,1.000000 
	C741.000000,216.333328 741.000000,431.666656 741.000000,647.000000 
	C666.166687,647.000000 591.333313,647.000000 516.000000,647.000000 
M526.044617,159.967484 
	C526.044617,159.967484 526.054626,159.791809 525.715759,159.093323 
	C524.998779,158.743286 524.284241,158.094635 523.564392,158.088547 
	C514.410645,158.011002 505.255219,157.965073 496.102997,158.100464 
	C495.062042,158.115860 494.038055,159.281235 492.084106,160.098022 
	C463.752319,160.153229 435.420532,160.208435 406.475281,159.669403 
	C399.353271,159.442627 392.232574,159.111755 385.108826,159.019485 
	C378.512543,158.934036 377.947205,159.540970 378.005829,166.117569 
	C378.317535,201.080276 378.667694,236.042648 379.001221,271.941284 
	C378.989563,303.288452 378.977905,334.635590 378.033264,365.993378 
	C372.387299,365.995300 366.732452,365.804657 361.098450,366.065277 
	C357.190918,366.246033 355.856628,364.882690 355.934875,360.942261 
	C356.149139,350.152771 356.066376,339.355652 355.953644,328.563110 
	C355.933990,326.682587 355.195648,324.809570 354.616180,322.017731 
	C354.670685,292.369751 354.725189,262.721802 355.364685,232.454239 
	C355.572449,231.661163 355.960449,230.868393 355.961761,230.074966 
	C355.998566,207.918213 355.962830,185.761292 356.029236,163.604675 
	C356.042053,159.325439 353.481232,158.012421 349.952454,158.084137 
	C345.148590,158.181778 340.353394,158.934158 335.553192,158.947479 
	C303.900696,159.035294 272.247742,158.967621 240.595444,159.087128 
	C238.729980,159.094162 236.868958,160.285904 234.088989,161.138153 
	C227.389954,161.081802 220.690918,161.025452 213.765991,160.745956 
	C213.462662,160.586380 213.206955,160.671814 212.201096,161.209702 
	C210.399933,161.810516 208.598755,162.411331 206.092316,163.320892 
	C205.742142,164.033478 205.093964,164.743256 205.087219,165.459061 
	C205.007629,173.927490 204.959763,182.397873 205.096558,190.864624 
	C205.113541,191.915741 206.244995,192.948837 207.044800,194.912582 
	C207.137726,201.617416 207.230652,208.322266 207.221191,215.955841 
	C207.235321,237.607666 207.249451,259.259491 206.669357,281.524780 
	C206.443756,282.814026 206.021759,284.103149 206.020920,285.392548 
	C205.990265,332.373566 205.981216,379.354675 206.079041,426.335541 
	C206.082260,427.887848 207.225021,429.437775 208.045135,431.907104 
	C208.068985,437.884460 207.975327,443.865082 208.139847,449.838562 
	C208.551102,464.771027 218.404526,476.851746 233.300888,480.799194 
	C234.194565,480.811462 235.088226,480.823730 236.901306,481.046112 
	C252.804779,480.956726 268.708252,480.867371 285.480194,480.941132 
	C306.324951,480.979248 327.169739,481.017365 348.671448,481.557556 
	C349.316650,481.699707 349.961731,481.965881 350.607025,481.966278 
	C385.438080,481.987701 420.269196,482.003357 455.100067,481.922089 
	C456.386536,481.919098 457.670685,480.945770 459.740082,480.149353 
	C477.910675,477.193085 486.766998,465.686127 488.779022,448.188873 
	C492.729706,448.188873 496.370728,448.188873 500.192902,448.789001 
	C501.086304,449.189880 501.979706,449.590759 503.019897,450.919861 
	C503.024048,460.579742 503.028168,470.239655 503.272339,480.660675 
	C511.395721,480.766998 519.519043,480.878174 527.642822,480.943634 
	C527.799316,480.944916 527.960144,480.407135 528.819702,479.749542 
	C529.217102,478.226257 529.957886,476.703735 529.961121,475.179596 
	C530.025085,445.321503 530.031006,415.463135 529.918640,385.605286 
	C529.912903,384.070526 528.743042,382.540131 527.935181,380.084625 
	C527.973572,366.720978 528.011963,353.357361 528.557068,339.338348 
	C528.706726,338.362244 528.987122,337.386169 528.987244,336.410065 
	C528.994812,281.702789 528.991638,226.995514 528.894958,172.288376 
	C528.892456,170.869705 527.841736,169.452896 527.084534,167.170288 
	C527.013611,165.105820 526.942627,163.041336 526.905579,160.435669 
	C526.595032,160.333313 526.284546,160.230972 526.044617,159.967484 
M491.467377,449.494598 
	C491.467377,449.494598 491.515717,449.474731 491.467377,449.494598 
z"/>
<path fill="#DE5FE9" opacity="1.000000" stroke="none" 
	d="
M213.991882,160.969101 
	C220.690918,161.025452 227.389954,161.081802 235.012177,161.093964 
	C275.255005,161.049774 314.574677,161.049774 354.166962,161.049774 
	C354.166962,164.826538 354.138580,168.295258 354.171631,171.763382 
	C354.366394,192.200272 354.575439,212.637039 354.779694,233.073837 
	C354.725189,262.721802 354.670685,292.369751 354.589874,322.927124 
	C354.563568,338.436340 354.563568,353.036224 354.563568,368.029968 
	C363.193634,368.029968 371.658661,368.029968 380.473328,367.855042 
	C381.215942,366.155090 381.950928,364.630371 381.952454,363.104919 
	C382.005310,310.311768 382.004150,257.518555 381.908356,204.725510 
	C381.905518,203.156204 380.805511,201.588898 380.119324,199.559692 
	C380.032806,186.730545 380.044006,174.362350 380.520294,162.000824 
	C416.742340,161.999817 452.499420,162.018784 488.256073,161.910690 
	C490.165436,161.904922 492.071594,160.828613 494.438416,160.143295 
	C505.283264,159.954559 515.668945,159.873184 526.054626,159.791809 
	C526.054626,159.791809 526.044617,159.967484 526.122925,160.224670 
	C526.383545,160.702713 526.606995,160.867722 526.871643,160.976868 
	C526.942627,163.041336 527.013611,165.105820 527.121948,168.065643 
	C527.256409,190.716873 527.396240,212.472641 527.434509,234.228607 
	C527.457886,247.497421 527.324951,260.766510 526.978210,274.257996 
	C526.464600,275.424225 526.035095,276.367767 526.034241,277.311707 
	C526.002869,311.468628 525.990295,345.625641 526.090698,379.782318 
	C526.094788,381.172943 527.215271,382.560333 527.917480,384.411377 
	C528.037964,391.510468 528.069946,398.147400 528.072571,404.784302 
	C528.081116,426.513000 528.078918,448.241669 527.812744,470.275909 
	C527.367188,473.680969 527.189758,476.780518 526.548218,479.954590 
	C518.400146,479.985931 510.716217,479.942749 503.032318,479.899536 
	C503.028168,470.239655 503.024048,460.579742 503.004883,450.082733 
	C501.997131,448.893372 501.004456,448.541138 500.011749,448.188873 
	C496.370728,448.188873 492.729706,448.188873 488.779022,448.188873 
	C486.766998,465.686127 477.910675,477.193085 458.884094,480.243286 
	C443.342987,480.381897 428.657837,480.426605 413.765259,480.165497 
	C412.141968,479.574066 410.726349,479.040497 409.310211,479.039093 
	C369.541504,478.999725 329.772675,478.991241 290.004181,479.094269 
	C288.205261,479.098907 286.409149,480.191895 284.611725,480.778015 
	C268.708252,480.867371 252.804779,480.956726 236.349976,480.639832 
	C234.813324,480.256683 233.828003,480.279785 232.842682,480.302887 
	C218.404526,476.851746 208.551102,464.771027 208.139847,449.838562 
	C207.975327,443.865082 208.068985,437.884460 208.009857,430.984497 
	C207.982834,426.744995 207.998062,423.428070 207.998245,420.111145 
	C207.999695,395.074554 207.998199,370.037933 208.258209,344.677856 
	C208.678772,343.381653 208.978088,342.408997 208.978577,341.436249 
	C208.999298,300.721558 209.010178,260.006866 208.920441,219.292358 
	C208.917297,217.869431 207.879257,216.448807 207.323578,215.027100 
	C207.230652,208.322266 207.137726,201.617416 207.009094,193.986435 
	C206.914795,183.044235 206.856186,173.028198 206.797592,163.012146 
	C208.598755,162.411331 210.399933,161.810516 212.850464,161.164383 
	C213.663834,161.069077 213.827866,161.019089 213.991882,160.969101 
z"/>
<path fill="#0D141A" opacity="1.000000" stroke="none" 
	d="
M355.072205,232.764038 
	C354.575439,212.637039 354.366394,192.200272 354.171631,171.763382 
	C354.138580,168.295258 354.166962,164.826538 354.166962,161.049774 
	C314.574677,161.049774 275.255005,161.049774 235.470612,160.988068 
	C236.868958,160.285904 238.729980,159.094162 240.595444,159.087128 
	C272.247742,158.967621 303.900696,159.035294 335.553192,158.947479 
	C340.353394,158.934158 345.148590,158.181778 349.952454,158.084137 
	C353.481232,158.012421 356.042053,159.325439 356.029236,163.604675 
	C355.962830,185.761292 355.998566,207.918213 355.961761,230.074966 
	C355.960449,230.868393 355.572449,231.661163 355.072205,232.764038 
z"/>
<path fill="#0D141A" opacity="1.000000" stroke="none" 
	d="
M207.997604,345.001343 
	C207.998199,370.037933 207.999695,395.074554 207.998245,420.111145 
	C207.998062,423.428070 207.982834,426.744995 207.905579,430.525391 
	C207.225021,429.437775 206.082260,427.887848 206.079041,426.335541 
	C205.981216,379.354675 205.990265,332.373566 206.020920,285.392548 
	C206.021759,284.103149 206.443756,282.814026 207.092651,281.611145 
	C207.676498,302.798798 207.837051,323.900085 207.997604,345.001343 
z"/>
<path fill="#0D141A" opacity="1.000000" stroke="none" 
	d="
M380.055206,161.994171 
	C380.044006,174.362350 380.032806,186.730545 380.043182,200.021545 
	C380.056610,203.595749 380.041962,206.247147 380.041351,208.898529 
	C380.036469,229.601974 380.034302,250.305405 379.774597,271.006470 
	C379.346802,271.004425 379.175659,271.004761 379.004547,271.005127 
	C378.667694,236.042648 378.317535,201.080276 378.005829,166.117569 
	C377.947205,159.540970 378.512543,158.934036 385.108826,159.019485 
	C392.232574,159.111755 399.353271,159.442627 406.388855,160.092682 
	C398.760010,160.575485 391.216278,160.578796 383.676422,160.751419 
	C382.460510,160.779251 381.261841,161.560959 380.055206,161.994171 
z"/>
<path fill="#010D0A" opacity="1.000000" stroke="none" 
	d="
M527.262207,274.035461 
	C527.324951,260.766510 527.457886,247.497421 527.434509,234.228607 
	C527.396240,212.472641 527.256409,190.716873 527.219604,168.498108 
	C527.841736,169.452896 528.892456,170.869705 528.894958,172.288376 
	C528.991638,226.995514 528.994812,281.702789 528.987244,336.410065 
	C528.987122,337.386169 528.706726,338.362244 528.223267,339.203735 
	C527.857605,326.317047 527.882935,313.564484 527.774292,300.813019 
	C527.698303,291.886353 527.439392,282.961273 527.262207,274.035461 
z"/>
<path fill="#F165FA" opacity="1.000000" stroke="none" 
	d="
M285.045959,480.859558 
	C286.409149,480.191895 288.205261,479.098907 290.004181,479.094269 
	C329.772675,478.991241 369.541504,478.999725 409.310211,479.039093 
	C410.726349,479.040497 412.141968,479.574066 413.302979,480.233948 
	C391.370270,480.757355 369.692383,480.906403 348.014496,481.055481 
	C327.169739,481.017365 306.324951,480.979248 285.045959,480.859558 
z"/>
<path fill="#F165FA" opacity="1.000000" stroke="none" 
	d="
M526.978210,274.257996 
	C527.439392,282.961273 527.698303,291.886353 527.774292,300.813019 
	C527.882935,313.564484 527.857605,326.317047 527.969910,339.531433 
	C528.011963,353.357361 527.973572,366.720978 527.947876,380.784882 
	C527.912231,382.306488 527.863953,383.127869 527.815674,383.949219 
	C527.215271,382.560333 526.094788,381.172943 526.090698,379.782318 
	C525.990295,345.625641 526.002869,311.468628 526.034241,277.311707 
	C526.035095,276.367767 526.464600,275.424225 526.978210,274.257996 
z"/>
<path fill="#F165FA" opacity="1.000000" stroke="none" 
	d="
M380.520294,162.000824 
	C381.261841,161.560959 382.460510,160.779251 383.676422,160.751419 
	C391.216278,160.578796 398.760010,160.575485 406.695618,160.389801 
	C435.420532,160.208435 463.752319,160.153229 492.786438,160.095703 
	C493.652252,160.145798 493.815735,160.198227 493.979248,160.250656 
	C492.071594,160.828613 490.165436,161.904922 488.256073,161.910690 
	C452.499420,162.018784 416.742340,161.999817 380.520294,162.000824 
z"/>
<path fill="#0D141A" opacity="1.000000" stroke="none" 
	d="
M527.917480,384.411377 
	C527.863953,383.127869 527.912231,382.306488 528.037842,381.246429 
	C528.743042,382.540131 529.912903,384.070526 529.918640,385.605286 
	C530.031006,415.463135 530.025085,445.321503 529.961121,475.179596 
	C529.957886,476.703735 529.217102,478.226257 528.450012,479.914459 
	C528.080322,480.079376 528.032898,480.046967 528.177795,479.608124 
	C528.242065,476.102966 528.161438,473.036682 528.080811,469.970367 
	C528.078918,448.241669 528.081116,426.513000 528.072571,404.784302 
	C528.069946,398.147400 528.037964,391.510468 527.917480,384.411377 
z"/>
<path fill="#F165FA" opacity="1.000000" stroke="none" 
	d="
M208.258209,344.677856 
	C207.837051,323.900085 207.676498,302.798798 207.389771,281.304443 
	C207.249451,259.259491 207.235321,237.607666 207.272385,215.491470 
	C207.879257,216.448807 208.917297,217.869431 208.920441,219.292358 
	C209.010178,260.006866 208.999298,300.721558 208.978577,341.436249 
	C208.978088,342.408997 208.678772,343.381653 208.258209,344.677856 
z"/>
<path fill="#010D0A" opacity="1.000000" stroke="none" 
	d="
M348.342957,481.306519 
	C369.692383,480.906403 391.370270,480.757355 413.510437,480.539795 
	C428.657837,480.426605 443.342987,480.381897 458.492004,480.380920 
	C457.670685,480.945770 456.386536,481.919098 455.100067,481.922089 
	C420.269196,482.003357 385.438080,481.987701 350.607025,481.966278 
	C349.961731,481.965881 349.316650,481.699707 348.342957,481.306519 
z"/>
<path fill="#0D141A" opacity="1.000000" stroke="none" 
	d="
M380.123718,368.029968 
	C371.658661,368.029968 363.193634,368.029968 354.563568,368.029968 
	C354.563568,353.036224 354.563568,338.436340 354.676392,323.384796 
	C355.195648,324.809570 355.933990,326.682587 355.953644,328.563110 
	C356.066376,339.355652 356.149139,350.152771 355.934875,360.942261 
	C355.856628,364.882690 357.190918,366.246033 361.098450,366.065277 
	C366.732452,365.804657 372.387299,365.995300 378.649597,366.194855 
	C379.536285,366.599915 379.806641,366.803497 380.174255,367.258850 
	C380.222229,367.683777 380.172974,367.856873 380.123718,368.029968 
z"/>
<path fill="#010D0A" opacity="1.000000" stroke="none" 
	d="
M380.077026,367.007050 
	C379.806641,366.803497 379.536285,366.599915 379.116089,366.189545 
	C378.977905,334.635590 378.989563,303.288452 379.002869,271.473206 
	C379.175659,271.004761 379.346802,271.004425 379.890839,271.462036 
	C380.284424,285.862854 380.346558,299.805847 380.315277,313.748657 
	C380.275421,331.501526 380.159912,349.254272 380.077026,367.007050 
z"/>
<path fill="#0D141A" opacity="1.000000" stroke="none" 
	d="
M494.438416,160.143295 
	C493.815735,160.198227 493.652252,160.145798 493.247498,160.003372 
	C494.038055,159.281235 495.062042,158.115860 496.102997,158.100464 
	C505.255219,157.965073 514.410645,158.011002 523.564392,158.088547 
	C524.284241,158.094635 524.998779,158.743286 525.885193,159.442566 
	C515.668945,159.873184 505.283264,159.954559 494.438416,160.143295 
z"/>
<path fill="#0D141A" opacity="1.000000" stroke="none" 
	d="
M206.444946,163.166519 
	C206.856186,173.028198 206.914795,183.044235 206.916718,193.525299 
	C206.244995,192.948837 205.113541,191.915741 205.096558,190.864624 
	C204.959763,182.397873 205.007629,173.927490 205.087219,165.459061 
	C205.093964,164.743256 205.742142,164.033478 206.444946,163.166519 
z"/>
<path fill="#0D141A" opacity="1.000000" stroke="none" 
	d="
M503.152344,480.280121 
	C510.716217,479.942749 518.400146,479.985931 526.799316,480.020905 
	C527.687378,480.024109 527.860107,480.035522 528.032898,480.046967 
	C528.032898,480.046967 528.080322,480.079376 528.099609,480.100128 
	C527.960144,480.407135 527.799316,480.944916 527.642822,480.943634 
	C519.519043,480.878174 511.395721,480.766998 503.152344,480.280121 
z"/>
<path fill="#0D141A" opacity="1.000000" stroke="none" 
	d="
M500.102325,448.488953 
	C501.004456,448.541138 501.997131,448.893372 502.931458,449.618622 
	C501.979706,449.590759 501.086304,449.189880 500.102325,448.488953 
z"/>
<path fill="#F165FA" opacity="1.000000" stroke="none" 
	d="
M233.071777,480.551025 
	C233.828003,480.279785 234.813324,480.256683 235.890274,480.534790 
	C235.088226,480.823730 234.194565,480.811462 233.071777,480.551025 
z"/>
<path fill="#F165FA" opacity="1.000000" stroke="none" 
	d="
M526.888611,160.706268 
	C526.606995,160.867722 526.383545,160.702713 526.087646,160.305237 
	C526.284546,160.230972 526.595032,160.333313 526.888611,160.706268 
z"/>
<path fill="#0D141A" opacity="1.000000" stroke="none" 
	d="
M491.491547,449.484680 
	C491.515717,449.474731 491.467377,449.494598 491.491547,449.484680 
z"/>
<path fill="#010D0A" opacity="1.000000" stroke="none" 
	d="
M213.878937,160.857529 
	C213.827866,161.019089 213.663834,161.069077 213.249329,161.060669 
	C213.206955,160.671814 213.462662,160.586380 213.878937,160.857529 
z"/>
<path fill="#F165FA" opacity="1.000000" stroke="none" 
	d="
M380.174255,367.258850 
	C380.159912,349.254272 380.275421,331.501526 380.315277,313.748657 
	C380.346558,299.805847 380.284424,285.862854 380.147522,271.464386 
	C380.034302,250.305405 380.036469,229.601974 380.041351,208.898529 
	C380.041962,206.247147 380.056610,203.595749 380.140930,200.482513 
	C380.805511,201.588898 381.905518,203.156204 381.908356,204.725510 
	C382.004150,257.518555 382.005310,310.311768 381.952454,363.104919 
	C381.950928,364.630371 381.215942,366.155090 380.473328,367.855042 
	C380.172974,367.856873 380.222229,367.683777 380.174255,367.258850 
z"/>
<path fill="#F165FA" opacity="1.000000" stroke="none" 
	d="
M528.177795,479.608124 
	C527.860107,480.035522 527.687378,480.024109 527.263489,479.946350 
	C527.189758,476.780518 527.367188,473.680969 527.812744,470.275909 
	C528.161438,473.036682 528.242065,476.102966 528.177795,479.608124 
z"/>
</svg>